<svg width="1552pt" height="1760pt" viewBox="0.00 0.00 1552.00 1760.00" xmlns="http://www.w3.org/2000/svg" xmlns:xlink="http://www.w3.org/1999/xlink">
<g id="graph0" class="graph" transform="scale(1 1) rotate(0) translate(4 1755.72)">
<title>ElectronicsIMS_Complete_Traditional</title>
<polygon fill="white" stroke="none" points="-4,4 -4,-1755.72 1548.28,-1755.72 1548.28,4 -4,4"/>
<!-- Supplier -->
<g id="node1" class="node">
<title>Supplier</title>
<polygon fill="#b3e5fc" stroke="black" points="909.88,-655.68 801.88,-655.68 801.88,-619.68 909.88,-619.68 909.88,-655.68"/>
<text xml:space="preserve" text-anchor="middle" x="855.88" y="-633.48" font-family="Helvetica,Arial,sans-serif" font-size="14.00">Supplier</text>
</g>
<!-- s1 -->
<g id="node11" class="node">
<title>s1</title>
<ellipse fill="none" stroke="black" cx="500.38" cy="-489.55" rx="36" ry="18"/>
<text xml:space="preserve" text-anchor="start" x="482.38" y="-487.85" font-family="Helvetica,Arial,sans-serif" text-decoration="underline" font-size="9.00">supplierid</text>
</g>
<!-- Supplier&#45;&#45;s1 -->
<g id="edge1" class="edge">
<title>Supplier--s1</title>
<path fill="none" stroke="black" d="M829.09,-619.22C804.87,-603.13 767.82,-579.98 733.23,-564.33 664.56,-533.27 579.18,-509.33 533.26,-497.57"/>
</g>
<!-- s2 -->
<g id="node12" class="node">
<title>s2</title>
<ellipse fill="none" stroke="black" cx="704.07" cy="-579.72" rx="36" ry="18"/>
<text xml:space="preserve" text-anchor="middle" x="704.07" y="-577.02" font-family="Helvetica,Arial,sans-serif" font-size="9.00">name</text>
</g>
<!-- Supplier&#45;&#45;s2 -->
<g id="edge2" class="edge">
<title>Supplier--s2</title>
<path fill="none" stroke="black" d="M807.43,-619.18C782.96,-609.84 754.09,-598.82 733.09,-590.8"/>
</g>
<!-- s3 -->
<g id="node13" class="node">
<title>s3</title>
<ellipse fill="none" stroke="black" cx="887.65" cy="-469.89" rx="36" ry="18"/>
<text xml:space="preserve" text-anchor="middle" x="887.65" y="-467.19" font-family="Helvetica,Arial,sans-serif" font-size="9.00">email</text>
</g>
<!-- Supplier&#45;&#45;s3 -->
<g id="edge3" class="edge">
<title>Supplier--s3</title>
<path fill="none" stroke="black" d="M859.34,-619.41C865.45,-587.13 878.09,-520.4 884.19,-488.14"/>
</g>
<!-- s4 -->
<g id="node14" class="node">
<title>s4</title>
<ellipse fill="none" stroke="black" cx="1069.78" cy="-521.77" rx="36" ry="18"/>
<text xml:space="preserve" text-anchor="middle" x="1069.78" y="-519.07" font-family="Helvetica,Arial,sans-serif" font-size="9.00">phone</text>
</g>
<!-- Supplier&#45;&#45;s4 -->
<g id="edge4" class="edge">
<title>Supplier--s4</title>
<path fill="none" stroke="black" d="M889.77,-619.32C933.01,-595.89 1006.75,-555.93 1045.05,-535.17"/>
</g>
<!-- s5 -->
<g id="node15" class="node">
<title>s5</title>
<ellipse fill="none" stroke="black" cx="726.18" cy="-735.86" rx="36" ry="18"/>
<text xml:space="preserve" text-anchor="middle" x="726.18" y="-733.16" font-family="Helvetica,Arial,sans-serif" font-size="9.00">address</text>
</g>
<!-- Supplier&#45;&#45;s5 -->
<g id="edge5" class="edge">
<title>Supplier--s5</title>
<path fill="none" stroke="black" d="M831.49,-656.15C806.83,-674.81 769.18,-703.31 746.21,-720.7"/>
</g>
<!-- s6 -->
<g id="node16" class="node">
<title>s6</title>
<ellipse fill="none" stroke="black" cx="561.42" cy="-261.62" rx="36" ry="18"/>
<text xml:space="preserve" text-anchor="middle" x="561.42" y="-258.92" font-family="Helvetica,Arial,sans-serif" font-size="9.00">minorderval</text>
</g>
<!-- Supplier&#45;&#45;s6 -->
<g id="edge6" class="edge">
<title>Supplier--s6</title>
<path fill="none" stroke="black" d="M833.74,-619.35C793.38,-585 707.09,-507.1 653.29,-426.27 619.19,-375.04 585.63,-310.26 570.2,-279.46"/>
</g>
<!-- s7 -->
<g id="node17" class="node">
<title>s7</title>
<ellipse fill="none" stroke="black" cx="694.52" cy="-426.27" rx="36" ry="18"/>
<text xml:space="preserve" text-anchor="middle" x="694.52" y="-423.57" font-family="Helvetica,Arial,sans-serif" font-size="9.00">currency</text>
</g>
<!-- Supplier&#45;&#45;s7 -->
<g id="edge7" class="edge">
<title>Supplier--s7</title>
<path fill="none" stroke="black" d="M841.84,-619.29C810.94,-578.81 737.42,-482.47 707.51,-443.28"/>
</g>
<!-- Rel_Has -->
<g id="node61" class="node">
<title>Rel_Has</title>
<polygon fill="#f5f5f5" stroke="black" points="1030.02,-305.16 986.82,-287.16 1030.02,-269.16 1073.22,-287.16 1030.02,-305.16"/>
<text xml:space="preserve" text-anchor="middle" x="1030.02" y="-284.16" font-family="Helvetica,Arial,sans-serif" font-size="10.00">Has</text>
</g>
<!-- Supplier&#45;&#45;Rel_Has -->
<g id="edge52" class="edge">
<title>Supplier--Rel_Has</title>
<path fill="none" stroke="black" d="M865,-619.33C895.58,-557.77 994.17,-359.32 1022.4,-302.49"/>
<text xml:space="preserve" text-anchor="middle" x="942.08" y="-462.14" font-family="Helvetica,Arial,sans-serif" font-size="10.00">1</text>
</g>
<!-- Rel_Supplies -->
<g id="node62" class="node">
<title>Rel_Supplies</title>
<polygon fill="#f5f5f5" stroke="black" points="862.16,-833.29 807.83,-801.29 862.16,-769.29 916.49,-801.29 862.16,-833.29"/>
<text xml:space="preserve" text-anchor="middle" x="862.16" y="-804.29" font-family="Helvetica,Arial,sans-serif" font-size="10.00">Supplies</text>
<text xml:space="preserve" text-anchor="middle" x="862.16" y="-792.29" font-family="Helvetica,Arial,sans-serif" font-size="10.00">(unitcost)</text>
</g>
<!-- Supplier&#45;&#45;Rel_Supplies -->
<g id="edge54" class="edge">
<title>Supplier--Rel_Supplies</title>
<path fill="none" stroke="black" d="M856.59,-656.13C857.64,-683.63 859.64,-735.72 860.94,-769.45"/>
<text xml:space="preserve" text-anchor="middle" x="854.23" y="-713.45" font-family="Helvetica,Arial,sans-serif" font-size="10.00">M</text>
</g>
<!-- Rel_PlacedWith -->
<g id="node66" class="node">
<title>Rel_PlacedWith</title>
<polygon fill="#f5f5f5" stroke="black" points="1001.77,-707.14 946.37,-689.14 1001.77,-671.14 1057.18,-689.14 1001.77,-707.14"/>
<text xml:space="preserve" text-anchor="middle" x="1001.77" y="-686.14" font-family="Helvetica,Arial,sans-serif" font-size="10.00">Placed With</text>
</g>
<!-- Supplier&#45;&#45;Rel_PlacedWith -->
<g id="edge62" class="edge">
<title>Supplier--Rel_PlacedWith</title>
<path fill="none" stroke="black" d="M908.14,-656.11C930.71,-664.07 956.15,-673.05 974.81,-679.63"/>
<text xml:space="preserve" text-anchor="middle" x="940.44" y="-671.39" font-family="Helvetica,Arial,sans-serif" font-size="10.00">1</text>
</g>
<!-- User -->
<g id="node2" class="node">
<title>User</title>
<polygon fill="#b3e5fc" stroke="black" points="468.44,-685.64 360.44,-685.64 360.44,-649.64 468.44,-649.64 468.44,-685.64"/>
<text xml:space="preserve" text-anchor="middle" x="414.44" y="-663.44" font-family="Helvetica,Arial,sans-serif" font-size="14.00">User</text>
</g>
<!-- u1 -->
<g id="node18" class="node">
<title>u1</title>
<ellipse fill="none" stroke="black" cx="257.86" cy="-549.22" rx="36" ry="18"/>
<text xml:space="preserve" text-anchor="start" x="246.86" y="-547.52" font-family="Helvetica,Arial,sans-serif" text-decoration="underline" font-size="9.00">userid</text>
</g>
<!-- User&#45;&#45;u1 -->
<g id="edge8" class="edge">
<title>User--u1</title>
<path fill="none" stroke="black" d="M390.32,-649.4C359.43,-626.04 306.5,-586.01 277.79,-564.29"/>
</g>
<!-- u2 -->
<g id="node19" class="node">
<title>u2</title>
<ellipse fill="none" stroke="black" cx="56.07" cy="-58.75" rx="36" ry="18"/>
<text xml:space="preserve" text-anchor="middle" x="56.07" y="-56.05" font-family="Helvetica,Arial,sans-serif" font-size="9.00">username</text>
</g>
<!-- User&#45;&#45;u2 -->
<g id="edge9" class="edge">
<title>User--u2</title>
<path fill="none" stroke="black" d="M403.71,-649.42C350.84,-559.58 118.39,-164.64 66.4,-76.31"/>
</g>
<!-- u3 -->
<g id="node20" class="node">
<title>u3</title>
<ellipse fill="none" stroke="black" cx="56" cy="-363.21" rx="36" ry="18"/>
<text xml:space="preserve" text-anchor="middle" x="56" y="-360.51" font-family="Helvetica,Arial,sans-serif" font-size="9.00">email</text>
</g>
<!-- User&#45;&#45;u3 -->
<g id="edge10" class="edge">
<title>User--u3</title>
<path fill="none" stroke="black" d="M398.86,-649.37C375.72,-622.67 330.32,-572.04 287.02,-533.84 215.05,-470.33 120.69,-405.85 78.3,-377.77"/>
</g>
<!-- u4 -->
<g id="node21" class="node">
<title>u4</title>
<ellipse fill="none" stroke="black" cx="322.66" cy="-324.25" rx="36" ry="18"/>
<text xml:space="preserve" text-anchor="middle" x="322.66" y="-321.55" font-family="Helvetica,Arial,sans-serif" font-size="9.00">password</text>
</g>
<!-- User&#45;&#45;u4 -->
<g id="edge11" class="edge">
<title>User--u4</title>
<path fill="none" stroke="black" d="M409.5,-649.18C393.53,-589.41 343.35,-401.68 327.5,-342.39"/>
</g>
<!-- u5 -->
<g id="node22" class="node">
<title>u5</title>
<ellipse fill="none" stroke="black" cx="305.01" cy="-56.75" rx="36" ry="18"/>
<text xml:space="preserve" text-anchor="middle" x="305.01" y="-54.05" font-family="Helvetica,Arial,sans-serif" font-size="9.00">role</text>
</g>
<!-- User&#45;&#45;u5 -->
<g id="edge12" class="edge">
<title>User--u5</title>
<path fill="none" stroke="black" d="M412.2,-649.32C405.83,-597.89 386.56,-447.83 363.89,-324.25 346.56,-229.77 319.92,-117.84 309.45,-74.82"/>
</g>
<!-- Rel_Manages -->
<g id="node60" class="node">
<title>Rel_Manages</title>
<polygon fill="#f5f5f5" stroke="black" points="582.78,-690.45 538.47,-672.45 582.78,-654.45 627.09,-672.45 582.78,-690.45"/>
<text xml:space="preserve" text-anchor="middle" x="582.78" y="-669.45" font-family="Helvetica,Arial,sans-serif" font-size="10.00">Manages</text>
</g>
<!-- User&#45;&#45;Rel_Manages -->
<g id="edge50" class="edge">
<title>User--Rel_Manages</title>
<path fill="none" stroke="black" d="M468.63,-669.19C491.79,-669.85 518.44,-670.61 540.16,-671.23"/>
<text xml:space="preserve" text-anchor="middle" x="502.44" y="-673.22" font-family="Helvetica,Arial,sans-serif" font-size="10.00">1</text>
</g>
<!-- Rel_PerformedBy -->
<g id="node70" class="node">
<title>Rel_PerformedBy</title>
<polygon fill="#f5f5f5" stroke="black" points="510.62,-828.22 449.07,-810.22 510.62,-792.22 572.17,-810.22 510.62,-828.22"/>
<text xml:space="preserve" text-anchor="middle" x="510.62" y="-807.22" font-family="Helvetica,Arial,sans-serif" font-size="10.00">Performed By</text>
</g>
<!-- User&#45;&#45;Rel_PerformedBy -->
<g id="edge70" class="edge">
<title>User--Rel_PerformedBy</title>
<path fill="none" stroke="black" d="M426.81,-685.99C445.99,-714.42 482.53,-768.58 500.34,-794.99"/>
<text xml:space="preserve" text-anchor="middle" x="461.59" y="-744.25" font-family="Helvetica,Arial,sans-serif" font-size="10.00">1</text>
</g>
<!-- Contract -->
<g id="node3" class="node">
<title>Contract</title>
<polygon fill="#b3e5fc" stroke="black" points="864.68,-278.57 756.68,-278.57 756.68,-242.57 864.68,-242.57 864.68,-278.57"/>
<text xml:space="preserve" text-anchor="middle" x="810.68" y="-256.37" font-family="Helvetica,Arial,sans-serif" font-size="14.00">Contract</text>
</g>
<!-- c1 -->
<g id="node23" class="node">
<title>c1</title>
<ellipse fill="none" stroke="black" cx="963.98" cy="-26.01" rx="36" ry="18"/>
<text xml:space="preserve" text-anchor="start" x="945.99" y="-24.31" font-family="Helvetica,Arial,sans-serif" text-decoration="underline" font-size="9.00">contractid</text>
</g>
<!-- Contract&#45;&#45;c1 -->
<g id="edge13" class="edge">
<title>Contract--c1</title>
<path fill="none" stroke="black" d="M822.71,-242.17C851.58,-198 924.47,-86.46 952.63,-43.37"/>
</g>
<!-- c2 -->
<g id="node24" class="node">
<title>c2</title>
<ellipse fill="none" stroke="black" cx="1202.36" cy="-58.87" rx="36" ry="18"/>
<text xml:space="preserve" text-anchor="middle" x="1202.36" y="-56.17" font-family="Helvetica,Arial,sans-serif" font-size="9.00">startdate</text>
</g>
<!-- Contract&#45;&#45;c2 -->
<g id="edge14" class="edge">
<title>Contract--c2</title>
<path fill="none" stroke="black" d="M846.48,-242.14C924.66,-201.88 1109.09,-106.9 1176.83,-72.02"/>
</g>
<!-- c3 -->
<g id="node25" class="node">
<title>c3</title>
<ellipse fill="none" stroke="black" cx="1465.27" cy="-41.68" rx="36" ry="18"/>
<text xml:space="preserve" text-anchor="middle" x="1465.27" y="-38.98" font-family="Helvetica,Arial,sans-serif" font-size="9.00">enddate</text>
</g>
<!-- Contract&#45;&#45;c3 -->
<g id="edge15" class="edge">
<title>Contract--c3</title>
<path fill="none" stroke="black" d="M865.08,-242.38C997.31,-198.16 1332.23,-86.17 1434.89,-51.84"/>
</g>
<!-- c4 -->
<g id="node26" class="node">
<title>c4</title>
<ellipse fill="none" stroke="black" cx="525.69" cy="-18" rx="37.22" ry="18"/>
<text xml:space="preserve" text-anchor="middle" x="525.69" y="-15.3" font-family="Helvetica,Arial,sans-serif" font-size="9.00">leadtimedays</text>
</g>
<!-- Contract&#45;&#45;c4 -->
<g id="edge16" class="edge">
<title>Contract--c4</title>
<path fill="none" stroke="black" d="M789.26,-242.34C735.41,-196.51 595.06,-77.05 544.33,-33.87"/>
</g>
<!-- c5 -->
<g id="node27" class="node">
<title>c5</title>
<ellipse fill="none" stroke="black" cx="740.7" cy="-31.96" rx="36" ry="18"/>
<text xml:space="preserve" text-anchor="middle" x="740.7" y="-29.26" font-family="Helvetica,Arial,sans-serif" font-size="9.00">terms</text>
</g>
<!-- Contract&#45;&#45;c5 -->
<g id="edge17" class="edge">
<title>Contract--c5</title>
<path fill="none" stroke="black" d="M805.07,-242.25C791.93,-199.34 759.3,-92.74 746.24,-50.05"/>
</g>
<!-- Product -->
<g id="node4" class="node">
<title>Product</title>
<polygon fill="#b3e5fc" stroke="black" points="905.53,-962.79 797.53,-962.79 797.53,-926.79 905.53,-926.79 905.53,-962.79"/>
<text xml:space="preserve" text-anchor="middle" x="851.53" y="-940.59" font-family="Helvetica,Arial,sans-serif" font-size="14.00">Product</text>
</g>
<!-- p1 -->
<g id="node28" class="node">
<title>p1</title>
<ellipse fill="none" stroke="black" cx="836.4" cy="-1116.22" rx="36" ry="18"/>
<text xml:space="preserve" text-anchor="start" x="819.16" y="-1114.52" font-family="Helvetica,Arial,sans-serif" text-decoration="underline" font-size="9.00">productid</text>
</g>
<!-- Product&#45;&#45;p1 -->
<g id="edge18" class="edge">
<title>Product--p1</title>
<path fill="none" stroke="black" d="M849.91,-963.13C847.01,-996.04 840.95,-1064.75 838.03,-1097.75"/>
</g>
<!-- p2 -->
<g id="node29" class="node">
<title>p2</title>
<ellipse fill="none" stroke="black" cx="1007.05" cy="-889.51" rx="36" ry="18"/>
<text xml:space="preserve" text-anchor="middle" x="1007.05" y="-886.81" font-family="Helvetica,Arial,sans-serif" font-size="9.00">name</text>
</g>
<!-- Product&#45;&#45;p2 -->
<g id="edge19" class="edge">
<title>Product--p2</title>
<path fill="none" stroke="black" d="M903.32,-926.38C927.88,-917.65 956.36,-907.53 977.25,-900.1"/>
</g>
<!-- p3 -->
<g id="node30" class="node">
<title>p3</title>
<ellipse fill="none" stroke="black" cx="1195.14" cy="-1000.19" rx="36" ry="18"/>
<text xml:space="preserve" text-anchor="middle" x="1195.14" y="-997.49" font-family="Helvetica,Arial,sans-serif" font-size="9.00">SKU</text>
</g>
<!-- Product&#45;&#45;p3 -->
<g id="edge20" class="edge">
<title>Product--p3</title>
<path fill="none" stroke="black" d="M905.98,-953.56C977.51,-965.1 1101.03,-985.01 1160.78,-994.65"/>
</g>
<!-- p4 -->
<g id="node31" class="node">
<title>p4</title>
<ellipse fill="none" stroke="black" cx="1203.54" cy="-1435.24" rx="36" ry="18"/>
<text xml:space="preserve" text-anchor="middle" x="1203.54" y="-1432.54" font-family="Helvetica,Arial,sans-serif" font-size="9.00">description</text>
</g>
<!-- Product&#45;&#45;p4 -->
<g id="edge21" class="edge">
<title>Product--p4</title>
<path fill="none" stroke="black" d="M864.69,-963.12C920.48,-1040.85 1137.13,-1342.71 1191.24,-1418.1"/>
</g>
<!-- p5 -->
<g id="node32" class="node">
<title>p5</title>
<ellipse fill="none" stroke="black" cx="993.37" cy="-1050.48" rx="36" ry="18"/>
<text xml:space="preserve" text-anchor="middle" x="993.37" y="-1047.78" font-family="Helvetica,Arial,sans-serif" font-size="9.00">price</text>
</g>
<!-- Product&#45;&#45;p5 -->
<g id="edge22" class="edge">
<title>Product--p5</title>
<path fill="none" stroke="black" d="M876.24,-963.2C903.7,-983.66 947.54,-1016.33 973.08,-1035.36"/>
</g>
<!-- p6 -->
<g id="node33" class="node">
<title>p6</title>
<ellipse fill="none" stroke="black" cx="678.01" cy="-858.23" rx="36" ry="18"/>
<text xml:space="preserve" text-anchor="middle" x="678.01" y="-855.53" font-family="Helvetica,Arial,sans-serif" font-size="9.00">vatrate</text>
</g>
<!-- Product&#45;&#45;p6 -->
<g id="edge23" class="edge">
<title>Product--p6</title>
<path fill="none" stroke="black" d="M814.73,-926.43C781.41,-909.81 733.16,-885.74 703.79,-871.09"/>
</g>
<!-- p7 -->
<g id="node34" class="node">
<title>p7</title>
<ellipse fill="none" stroke="black" cx="971.17" cy="-1271.68" rx="36" ry="18"/>
<text xml:space="preserve" text-anchor="middle" x="971.17" y="-1268.98" font-family="Helvetica,Arial,sans-serif" font-size="9.00">category</text>
</g>
<!-- Product&#45;&#45;p7 -->
<g id="edge24" class="edge">
<title>Product--p7</title>
<path fill="none" stroke="black" d="M858.14,-962.83C879.05,-1019.98 943.7,-1196.62 964.59,-1253.7"/>
</g>
<!-- Rel_Stocks -->
<g id="node63" class="node">
<title>Rel_Stocks</title>
<polygon fill="#f5f5f5" stroke="black" points="722.1,-1017.59 678.9,-999.59 722.1,-981.59 765.3,-999.59 722.1,-1017.59"/>
<text xml:space="preserve" text-anchor="middle" x="722.1" y="-996.59" font-family="Helvetica,Arial,sans-serif" font-size="10.00">Stocks</text>
</g>
<!-- Product&#45;&#45;Rel_Stocks -->
<g id="edge56" class="edge">
<title>Product--Rel_Stocks</title>
<path fill="none" stroke="black" d="M808.07,-963.19C786.48,-972.33 761.34,-982.97 743.85,-990.38"/>
<text xml:space="preserve" text-anchor="middle" x="771.92" y="-980.43" font-family="Helvetica,Arial,sans-serif" font-size="10.00">1</text>
</g>
<!-- Location -->
<g id="node5" class="node">
<title>Location</title>
<polygon fill="#b3e5fc" stroke="black" points="814.99,-1512.13 706.99,-1512.13 706.99,-1476.13 814.99,-1476.13 814.99,-1512.13"/>
<text xml:space="preserve" text-anchor="middle" x="760.99" y="-1489.93" font-family="Helvetica,Arial,sans-serif" font-size="14.00">Location</text>
</g>
<!-- l1 -->
<g id="node35" class="node">
<title>l1</title>
<ellipse fill="none" stroke="black" cx="896.99" cy="-1732.02" rx="36" ry="18"/>
<text xml:space="preserve" text-anchor="start" x="878.99" y="-1730.32" font-family="Helvetica,Arial,sans-serif" text-decoration="underline" font-size="9.00">locationid</text>
</g>
<!-- Location&#45;&#45;l1 -->
<g id="edge25" class="edge">
<title>Location--l1</title>
<path fill="none" stroke="black" d="M771.43,-1512.41C796.87,-1556.9 861.79,-1670.45 886.88,-1714.33"/>
</g>
<!-- l2 -->
<g id="node36" class="node">
<title>l2</title>
<ellipse fill="none" stroke="black" cx="1162.35" cy="-1716.09" rx="36" ry="18"/>
<text xml:space="preserve" text-anchor="middle" x="1162.35" y="-1713.39" font-family="Helvetica,Arial,sans-serif" font-size="9.00">name</text>
</g>
<!-- Location&#45;&#45;l2 -->
<g id="edge26" class="edge">
<title>Location--l2</title>
<path fill="none" stroke="black" d="M794.17,-1512.49C872.87,-1556 1069.33,-1664.65 1138.11,-1702.68"/>
</g>
<!-- l3 -->
<g id="node37" class="node">
<title>l3</title>
<ellipse fill="none" stroke="black" cx="644.15" cy="-1733.72" rx="36" ry="18"/>
<text xml:space="preserve" text-anchor="middle" x="644.15" y="-1731.02" font-family="Helvetica,Arial,sans-serif" font-size="9.00">address</text>
</g>
<!-- Location&#45;&#45;l3 -->
<g id="edge27" class="edge">
<title>Location--l3</title>
<path fill="none" stroke="black" d="M752.01,-1512.54C730.16,-1557.35 674.39,-1671.71 652.84,-1715.91"/>
</g>
<!-- Inventory -->
<g id="node6" class="node">
<title>Inventory</title>
<polygon fill="#b3e5fc" stroke="black" points="695.57,-1150.92 587.57,-1150.92 587.57,-1114.92 695.57,-1114.92 695.57,-1150.92"/>
<text xml:space="preserve" text-anchor="middle" x="641.57" y="-1128.72" font-family="Helvetica,Arial,sans-serif" font-size="14.00">Inventory</text>
</g>
<!-- i1 -->
<g id="node38" class="node">
<title>i1</title>
<ellipse fill="none" stroke="black" cx="802.9" cy="-1284.5" rx="36" ry="18"/>
<text xml:space="preserve" text-anchor="start" x="782.16" y="-1282.8" font-family="Helvetica,Arial,sans-serif" text-decoration="underline" font-size="9.00">inventoryid</text>
</g>
<!-- Inventory&#45;&#45;i1 -->
<g id="edge28" class="edge">
<title>Inventory--i1</title>
<path fill="none" stroke="black" d="M661.03,-1151.2C692.88,-1181.13 755.6,-1240.06 785.83,-1268.45"/>
</g>
<!-- i2 -->
<g id="node39" class="node">
<title>i2</title>
<ellipse fill="none" stroke="black" cx="637.2" cy="-1301.83" rx="36" ry="18"/>
<text xml:space="preserve" text-anchor="middle" x="637.2" y="-1299.13" font-family="Helvetica,Arial,sans-serif" font-size="9.00">stocklevel</text>
</g>
<!-- Inventory&#45;&#45;i2 -->
<g id="edge29" class="edge">
<title>Inventory--i2</title>
<path fill="none" stroke="black" d="M641.1,-1151.32C640.26,-1183.81 638.52,-1250.98 637.68,-1283.45"/>
</g>
<!-- i3 -->
<g id="node40" class="node">
<title>i3</title>
<ellipse fill="none" stroke="black" cx="446.59" cy="-1100.66" rx="36" ry="18"/>
<text xml:space="preserve" text-anchor="middle" x="446.59" y="-1097.96" font-family="Helvetica,Arial,sans-serif" font-size="9.00">reorderpoint</text>
</g>
<!-- Inventory&#45;&#45;i3 -->
<g id="edge30" class="edge">
<title>Inventory--i3</title>
<path fill="none" stroke="black" d="M587.26,-1123.93C553.23,-1118.3 510.41,-1111.22 481,-1106.35"/>
</g>
<!-- i4 -->
<g id="node41" class="node">
<title>i4</title>
<ellipse fill="none" stroke="black" cx="537.74" cy="-1498.69" rx="36" ry="18"/>
<text xml:space="preserve" text-anchor="middle" x="537.74" y="-1495.99" font-family="Helvetica,Arial,sans-serif" font-size="9.00">lastupdated</text>
</g>
<!-- Inventory&#45;&#45;i4 -->
<g id="edge31" class="edge">
<title>Inventory--i4</title>
<path fill="none" stroke="black" d="M636.35,-1151.31C618.59,-1213.89 560.6,-1418.17 542.91,-1480.48"/>
</g>
<!-- Rel_StoredAt -->
<g id="node64" class="node">
<title>Rel_StoredAt</title>
<polygon fill="#f5f5f5" stroke="black" points="977.83,-1501.56 931.39,-1483.56 977.83,-1465.56 1024.27,-1483.56 977.83,-1501.56"/>
<text xml:space="preserve" text-anchor="middle" x="977.83" y="-1480.56" font-family="Helvetica,Arial,sans-serif" font-size="10.00">Stored At</text>
</g>
<!-- Inventory&#45;&#45;Rel_StoredAt -->
<g id="edge58" class="edge">
<title>Inventory--Rel_StoredAt</title>
<path fill="none" stroke="black" d="M654.53,-1151.28C677.19,-1182.92 726.17,-1249.21 773.74,-1299.88 839.15,-1369.57 927.29,-1442.77 962.44,-1471.23"/>
<text xml:space="preserve" text-anchor="middle" x="792.72" y="-1326.22" font-family="Helvetica,Arial,sans-serif" font-size="10.00">N</text>
</g>
<!-- Rel_Triggers -->
<g id="node65" class="node">
<title>Rel_Triggers</title>
<polygon fill="#f5f5f5" stroke="black" points="458.6,-1303.81 415.4,-1285.81 458.6,-1267.81 501.8,-1285.81 458.6,-1303.81"/>
<text xml:space="preserve" text-anchor="middle" x="458.6" y="-1282.81" font-family="Helvetica,Arial,sans-serif" font-size="10.00">Triggers</text>
</g>
<!-- Inventory&#45;&#45;Rel_Triggers -->
<g id="edge60" class="edge">
<title>Inventory--Rel_Triggers</title>
<path fill="none" stroke="black" d="M619.5,-1151.36C581.67,-1182.97 505.43,-1246.68 473.35,-1273.48"/>
<text xml:space="preserve" text-anchor="middle" x="541.77" y="-1217.22" font-family="Helvetica,Arial,sans-serif" font-size="10.00">1</text>
</g>
<!-- Rel_Audits -->
<g id="node69" class="node">
<title>Rel_Audits</title>
<polygon fill="#f5f5f5" stroke="black" points="566.15,-991.56 522.95,-973.56 566.15,-955.56 609.35,-973.56 566.15,-991.56"/>
<text xml:space="preserve" text-anchor="middle" x="566.15" y="-970.56" font-family="Helvetica,Arial,sans-serif" font-size="10.00">Audits</text>
</g>
<!-- Inventory&#45;&#45;Rel_Audits -->
<g id="edge68" class="edge">
<title>Inventory--Rel_Audits</title>
<path fill="none" stroke="black" d="M632.92,-1114.64C617.91,-1082.92 587.3,-1018.26 573.36,-988.8"/>
<text xml:space="preserve" text-anchor="middle" x="600.24" y="-1053.87" font-family="Helvetica,Arial,sans-serif" font-size="10.00">1</text>
</g>
<!-- LowStockAlert -->
<g id="node7" class="node">
<title>LowStockAlert</title>
<polygon fill="#b3e5fc" stroke="black" points="349.68,-1491.8 241.68,-1491.8 241.68,-1455.8 349.68,-1455.8 349.68,-1491.8"/>
<text xml:space="preserve" text-anchor="middle" x="295.68" y="-1469.6" font-family="Helvetica,Arial,sans-serif" font-size="14.00">LowStockAlert</text>
</g>
<!-- la1 -->
<g id="node42" class="node">
<title>la1</title>
<ellipse fill="none" stroke="black" cx="74.52" cy="-1706.48" rx="36" ry="18"/>
<text xml:space="preserve" text-anchor="start" x="63.02" y="-1704.78" font-family="Helvetica,Arial,sans-serif" text-decoration="underline" font-size="9.00">alertid</text>
</g>
<!-- LowStockAlert&#45;&#45;la1 -->
<g id="edge32" class="edge">
<title>LowStockAlert--la1</title>
<path fill="none" stroke="black" d="M278.33,-1492.06C236.48,-1536.09 130.48,-1647.6 90.29,-1689.88"/>
</g>
<!-- la2 -->
<g id="node43" class="node">
<title>la2</title>
<ellipse fill="none" stroke="black" cx="46.57" cy="-1403.71" rx="36" ry="18"/>
<text xml:space="preserve" text-anchor="middle" x="46.57" y="-1401.01" font-family="Helvetica,Arial,sans-serif" font-size="9.00">alertdate</text>
</g>
<!-- LowStockAlert&#45;&#45;la2 -->
<g id="edge33" class="edge">
<title>LowStockAlert--la2</title>
<path fill="none" stroke="black" d="M241.32,-1458.51C191.5,-1444.49 119.44,-1424.21 78.38,-1412.66"/>
</g>
<!-- la3 -->
<g id="node44" class="node">
<title>la3</title>
<ellipse fill="none" stroke="black" cx="373.48" cy="-1731.04" rx="36" ry="18"/>
<text xml:space="preserve" text-anchor="middle" x="373.48" y="-1728.34" font-family="Helvetica,Arial,sans-serif" font-size="9.00">status</text>
</g>
<!-- LowStockAlert&#45;&#45;la3 -->
<g id="edge34" class="edge">
<title>LowStockAlert--la3</title>
<path fill="none" stroke="black" d="M301.16,-1491.89C315.44,-1539.12 353.74,-1665.77 368.01,-1712.98"/>
</g>
<!-- PurchaseOrder -->
<g id="node8" class="node">
<title>PurchaseOrder</title>
<polygon fill="#b3e5fc" stroke="black" points="1305.09,-639.14 1197.09,-639.14 1197.09,-603.14 1305.09,-603.14 1305.09,-639.14"/>
<text xml:space="preserve" text-anchor="middle" x="1251.09" y="-616.94" font-family="Helvetica,Arial,sans-serif" font-size="14.00">PurchaseOrder</text>
</g>
<!-- po1 -->
<g id="node45" class="node">
<title>po1</title>
<ellipse fill="none" stroke="black" cx="1500.91" cy="-777.11" rx="43.37" ry="18"/>
<text xml:space="preserve" text-anchor="start" x="1471.93" y="-775.41" font-family="Helvetica,Arial,sans-serif" text-decoration="underline" font-size="9.00">purchaseorderid</text>
</g>
<!-- PurchaseOrder&#45;&#45;po1 -->
<g id="edge35" class="edge">
<title>PurchaseOrder--po1</title>
<path fill="none" stroke="black" d="M1280.24,-639.34C1329.92,-670.36 1430.12,-732.91 1476.42,-761.82"/>
</g>
<!-- po2 -->
<g id="node46" class="node">
<title>po2</title>
<ellipse fill="none" stroke="black" cx="1243.91" cy="-364.47" rx="36" ry="18"/>
<text xml:space="preserve" text-anchor="middle" x="1243.91" y="-361.77" font-family="Helvetica,Arial,sans-serif" font-size="9.00">orderdate</text>
</g>
<!-- PurchaseOrder&#45;&#45;po2 -->
<g id="edge36" class="edge">
<title>PurchaseOrder--po2</title>
<path fill="none" stroke="black" d="M1250.58,-602.68C1249.25,-555.33 1245.74,-429.94 1244.42,-382.76"/>
</g>
<!-- po3 -->
<g id="node47" class="node">
<title>po3</title>
<ellipse fill="none" stroke="black" cx="1477.56" cy="-559.46" rx="36" ry="18"/>
<text xml:space="preserve" text-anchor="middle" x="1477.56" y="-556.76" font-family="Helvetica,Arial,sans-serif" font-size="9.00">expected</text>
</g>
<!-- PurchaseOrder&#45;&#45;po3 -->
<g id="edge37" class="edge">
<title>PurchaseOrder--po3</title>
<path fill="none" stroke="black" d="M1305.34,-606.37C1349.04,-594.47 1409.02,-578.13 1445.43,-568.21"/>
</g>
<!-- po4 -->
<g id="node48" class="node">
<title>po4</title>
<ellipse fill="none" stroke="black" cx="1478.81" cy="-316.29" rx="36" ry="18"/>
<text xml:space="preserve" text-anchor="middle" x="1478.81" y="-313.59" font-family="Helvetica,Arial,sans-serif" font-size="9.00">received</text>
</g>
<!-- PurchaseOrder&#45;&#45;po4 -->
<g id="edge38" class="edge">
<title>PurchaseOrder--po4</title>
<path fill="none" stroke="black" d="M1264.66,-602.99C1305.45,-548.38 1426.62,-386.17 1466.17,-333.22"/>
</g>
<!-- po5 -->
<g id="node49" class="node">
<title>po5</title>
<ellipse fill="none" stroke="black" cx="1295.09" cy="-834.43" rx="36" ry="18"/>
<text xml:space="preserve" text-anchor="middle" x="1295.09" y="-831.73" font-family="Helvetica,Arial,sans-serif" font-size="9.00">status</text>
</g>
<!-- PurchaseOrder&#45;&#45;po5 -->
<g id="edge39" class="edge">
<title>PurchaseOrder--po5</title>
<path fill="none" stroke="black" d="M1254.84,-639.33C1263.16,-679.62 1283.04,-776.04 1291.35,-816.29"/>
</g>
<!-- Rel_PO_Contains -->
<g id="node67" class="node">
<title>Rel_PO_Contains</title>
<polygon fill="#f5f5f5" stroke="black" points="1124.08,-820.11 1032.55,-788.11 1124.08,-756.11 1215.61,-788.11 1124.08,-820.11"/>
<text xml:space="preserve" text-anchor="middle" x="1124.08" y="-791.11" font-family="Helvetica,Arial,sans-serif" font-size="10.00">PO Items</text>
<text xml:space="preserve" text-anchor="middle" x="1124.08" y="-779.11" font-family="Helvetica,Arial,sans-serif" font-size="10.00">(qty, cost, rec_qty)</text>
</g>
<!-- PurchaseOrder&#45;&#45;Rel_PO_Contains -->
<g id="edge64" class="edge">
<title>PurchaseOrder--Rel_PO_Contains</title>
<path fill="none" stroke="black" d="M1237.26,-639.33C1214.56,-669.16 1169.36,-728.58 1143.48,-762.61"/>
<text xml:space="preserve" text-anchor="middle" x="1187.12" y="-702.4" font-family="Helvetica,Arial,sans-serif" font-size="10.00">M</text>
</g>
<!-- SalesOrder -->
<g id="node9" class="node">
<title>SalesOrder</title>
<polygon fill="#b3e5fc" stroke="black" points="1343.34,-1215.8 1235.34,-1215.8 1235.34,-1179.8 1343.34,-1179.8 1343.34,-1215.8"/>
<text xml:space="preserve" text-anchor="middle" x="1289.34" y="-1193.6" font-family="Helvetica,Arial,sans-serif" font-size="14.00">SalesOrder</text>
</g>
<!-- so1 -->
<g id="node50" class="node">
<title>so1</title>
<ellipse fill="none" stroke="black" cx="1467.67" cy="-988.53" rx="36" ry="18"/>
<text xml:space="preserve" text-anchor="start" x="1445.93" y="-986.83" font-family="Helvetica,Arial,sans-serif" text-decoration="underline" font-size="9.00">salesorderid</text>
</g>
<!-- SalesOrder&#45;&#45;so1 -->
<g id="edge40" class="edge">
<title>SalesOrder--so1</title>
<path fill="none" stroke="black" d="M1304.85,-1179.6C1339,-1139.52 1420.27,-1044.16 1453.32,-1005.37"/>
</g>
<!-- so2 -->
<g id="node51" class="node">
<title>so2</title>
<ellipse fill="none" stroke="black" cx="1453.69" cy="-1713.87" rx="36" ry="18"/>
<text xml:space="preserve" text-anchor="middle" x="1453.69" y="-1711.17" font-family="Helvetica,Arial,sans-serif" font-size="9.00">orderdate</text>
</g>
<!-- SalesOrder&#45;&#45;so2 -->
<g id="edge41" class="edge">
<title>SalesOrder--so2</title>
<path fill="none" stroke="black" d="M1295.18,-1216.17C1320.75,-1296.43 1422.49,-1615.9 1447.91,-1695.72"/>
</g>
<!-- so3 -->
<g id="node52" class="node">
<title>so3</title>
<ellipse fill="none" stroke="black" cx="1504.69" cy="-1196.51" rx="36" ry="18"/>
<text xml:space="preserve" text-anchor="middle" x="1504.69" y="-1193.81" font-family="Helvetica,Arial,sans-serif" font-size="9.00">total</text>
</g>
<!-- SalesOrder&#45;&#45;so3 -->
<g id="edge42" class="edge">
<title>SalesOrder--so3</title>
<path fill="none" stroke="black" d="M1343.68,-1197.48C1382.68,-1197.24 1434.17,-1196.94 1468.3,-1196.73"/>
</g>
<!-- so4 -->
<g id="node53" class="node">
<title>so4</title>
<ellipse fill="none" stroke="black" cx="1467.19" cy="-1438.71" rx="36" ry="18"/>
<text xml:space="preserve" text-anchor="middle" x="1467.19" y="-1436.01" font-family="Helvetica,Arial,sans-serif" font-size="9.00">cust_email</text>
</g>
<!-- SalesOrder&#45;&#45;so4 -->
<g id="edge43" class="edge">
<title>SalesOrder--so4</title>
<path fill="none" stroke="black" d="M1302.7,-1215.91C1335.99,-1260.99 1422.21,-1377.79 1454.62,-1421.69"/>
</g>
<!-- Rel_SO_Contains -->
<g id="node68" class="node">
<title>Rel_SO_Contains</title>
<polygon fill="#f5f5f5" stroke="black" points="1104.96,-1221.68 1044.54,-1189.68 1104.96,-1157.68 1165.39,-1189.68 1104.96,-1221.68"/>
<text xml:space="preserve" text-anchor="middle" x="1104.96" y="-1192.68" font-family="Helvetica,Arial,sans-serif" font-size="10.00">SO Items</text>
<text xml:space="preserve" text-anchor="middle" x="1104.96" y="-1180.68" font-family="Helvetica,Arial,sans-serif" font-size="10.00">(qty, price)</text>
</g>
<!-- SalesOrder&#45;&#45;Rel_SO_Contains -->
<g id="edge66" class="edge">
<title>SalesOrder--Rel_SO_Contains</title>
<path fill="none" stroke="black" d="M1235.01,-1195.41C1211.86,-1194.39 1184.84,-1193.2 1161.46,-1192.17"/>
<text xml:space="preserve" text-anchor="middle" x="1193.88" y="-1196.8" font-family="Helvetica,Arial,sans-serif" font-size="10.00">M</text>
</g>
<!-- InventoryAudit -->
<g id="node10" class="node">
<title>InventoryAudit</title>
<polygon fill="#b3e5fc" stroke="black" points="454.96,-935.66 346.96,-935.66 346.96,-899.66 454.96,-899.66 454.96,-935.66"/>
<text xml:space="preserve" text-anchor="middle" x="400.96" y="-913.46" font-family="Helvetica,Arial,sans-serif" font-size="14.00">InventoryAudit</text>
</g>
<!-- ia1 -->
<g id="node54" class="node">
<title>ia1</title>
<ellipse fill="none" stroke="black" cx="36" cy="-1133.75" rx="36" ry="18"/>
<text xml:space="preserve" text-anchor="start" x="23.5" y="-1132.05" font-family="Helvetica,Arial,sans-serif" text-decoration="underline" font-size="9.00">auditid</text>
</g>
<!-- InventoryAudit&#45;&#45;ia1 -->
<g id="edge44" class="edge">
<title>InventoryAudit--ia1</title>
<path fill="none" stroke="black" d="M381.98,-936.08C357.75,-958.94 313.86,-998.16 271.35,-1024.94 201.65,-1068.86 111.34,-1105.59 65.5,-1122.96"/>
</g>
<!-- ia2 -->
<g id="node55" class="node">
<title>ia2</title>
<ellipse fill="none" stroke="black" cx="257.44" cy="-1227.67" rx="36" ry="18"/>
<text xml:space="preserve" text-anchor="middle" x="257.44" y="-1224.97" font-family="Helvetica,Arial,sans-serif" font-size="9.00">old_stock</text>
</g>
<!-- InventoryAudit&#45;&#45;ia2 -->
<g id="edge45" class="edge">
<title>InventoryAudit--ia2</title>
<path fill="none" stroke="black" d="M392.41,-936.12C366.82,-991.39 291.06,-1155.06 265.77,-1209.69"/>
</g>
<!-- ia3 -->
<g id="node56" class="node">
<title>ia3</title>
<ellipse fill="none" stroke="black" cx="250.41" cy="-782.75" rx="36" ry="18"/>
<text xml:space="preserve" text-anchor="middle" x="250.41" y="-780.05" font-family="Helvetica,Arial,sans-serif" font-size="9.00">new_stock</text>
</g>
<!-- InventoryAudit&#45;&#45;ia3 -->
<g id="edge46" class="edge">
<title>InventoryAudit--ia3</title>
<path fill="none" stroke="black" d="M380.34,-899.18C350.54,-872.48 295.96,-823.57 267.97,-798.49"/>
</g>
<!-- ia4 -->
<g id="node57" class="node">
<title>ia4</title>
<ellipse fill="none" stroke="black" cx="37.7" cy="-639.68" rx="36" ry="18"/>
<text xml:space="preserve" text-anchor="middle" x="37.7" y="-636.98" font-family="Helvetica,Arial,sans-serif" font-size="9.00">type</text>
</g>
<!-- InventoryAudit&#45;&#45;ia4 -->
<g id="edge47" class="edge">
<title>InventoryAudit--ia4</title>
<path fill="none" stroke="black" d="M370.91,-899.3C334.58,-876.73 271.97,-836.66 221.25,-798.14 157.21,-749.51 86.56,-685.23 54.8,-655.73"/>
</g>
<!-- ia5 -->
<g id="node58" class="node">
<title>ia5</title>
<ellipse fill="none" stroke="black" cx="37.48" cy="-886.79" rx="36" ry="18"/>
<text xml:space="preserve" text-anchor="middle" x="37.48" y="-884.09" font-family="Helvetica,Arial,sans-serif" font-size="9.00">date</text>
</g>
<!-- InventoryAudit&#45;&#45;ia5 -->
<g id="edge48" class="edge">
<title>InventoryAudit--ia5</title>
<path fill="none" stroke="black" d="M346.54,-913.04C271.18,-906.64 137.14,-895.26 73.26,-889.83"/>
</g>
<!-- ia6 -->
<g id="node59" class="node">
<title>ia6</title>
<ellipse fill="none" stroke="black" cx="242.19" cy="-1009.56" rx="36" ry="18"/>
<text xml:space="preserve" text-anchor="middle" x="242.19" y="-1006.86" font-family="Helvetica,Arial,sans-serif" font-size="9.00">notes</text>
</g>
<!-- InventoryAudit&#45;&#45;ia6 -->
<g id="edge49" class="edge">
<title>InventoryAudit--ia6</title>
<path fill="none" stroke="black" d="M369.21,-936.03C338.8,-953.63 293.6,-979.8 266.12,-995.71"/>
</g>
<!-- Rel_Manages&#45;&#45;Supplier -->
<g id="edge51" class="edge">
<title>Rel_Manages--Supplier</title>
<path fill="none" stroke="black" d="M617.37,-668.04C663.8,-662.13 746.78,-651.57 801.58,-644.6"/>
<text xml:space="preserve" text-anchor="middle" x="702.72" y="-659.72" font-family="Helvetica,Arial,sans-serif" font-size="10.00">N</text>
</g>
<!-- Rel_Has&#45;&#45;Contract -->
<g id="edge53" class="edge">
<title>Rel_Has--Contract</title>
<path fill="none" stroke="black" d="M995.75,-283.01C960.69,-278.76 905.7,-272.09 864.76,-267.13"/>
<text xml:space="preserve" text-anchor="middle" x="928.85" y="-278.34" font-family="Helvetica,Arial,sans-serif" font-size="10.00">N</text>
</g>
<!-- Rel_Supplies&#45;&#45;Product -->
<g id="edge55" class="edge">
<title>Rel_Supplies--Product</title>
<path fill="none" stroke="black" d="M859.85,-832.43C857.73,-861.11 854.65,-902.71 852.89,-926.42"/>
<text xml:space="preserve" text-anchor="middle" x="852.62" y="-884.29" font-family="Helvetica,Arial,sans-serif" font-size="10.00">N</text>
</g>
<!-- Rel_Stocks&#45;&#45;Inventory -->
<g id="edge57" class="edge">
<title>Rel_Stocks--Inventory</title>
<path fill="none" stroke="black" d="M713.18,-1014.37C698.35,-1038.91 668.7,-1088.01 652.59,-1114.68"/>
<text xml:space="preserve" text-anchor="middle" x="679.76" y="-1066.73" font-family="Helvetica,Arial,sans-serif" font-size="10.00">N</text>
</g>
<!-- Rel_StoredAt&#45;&#45;Location -->
<g id="edge59" class="edge">
<title>Rel_StoredAt--Location</title>
<path fill="none" stroke="black" d="M935.51,-1485.62C901.12,-1487.3 852.39,-1489.68 815.15,-1491.49"/>
<text xml:space="preserve" text-anchor="middle" x="873.9" y="-1491.51" font-family="Helvetica,Arial,sans-serif" font-size="10.00">1</text>
</g>
<!-- Rel_Triggers&#45;&#45;LowStockAlert -->
<g id="edge61" class="edge">
<title>Rel_Triggers--LowStockAlert</title>
<path fill="none" stroke="black" d="M446.88,-1299.33C418.14,-1332.5 344.1,-1417.94 311.5,-1455.56"/>
<text xml:space="preserve" text-anchor="middle" x="377.02" y="-1378.77" font-family="Helvetica,Arial,sans-serif" font-size="10.00">N</text>
</g>
<!-- Rel_PlacedWith&#45;&#45;PurchaseOrder -->
<g id="edge63" class="edge">
<title>Rel_PlacedWith--PurchaseOrder</title>
<path fill="none" stroke="black" d="M1032.59,-680.73C1073.5,-669.58 1146.42,-649.69 1196.69,-635.98"/>
<text xml:space="preserve" text-anchor="middle" x="1107.52" y="-662.31" font-family="Helvetica,Arial,sans-serif" font-size="10.00">N</text>
</g>
<!-- Rel_PO_Contains&#45;&#45;Product -->
<g id="edge65" class="edge">
<title>Rel_PO_Contains--Product</title>
<path fill="none" stroke="black" d="M1089.01,-808.27C1035.67,-838.93 934.94,-896.84 883.51,-926.4"/>
<text xml:space="preserve" text-anchor="middle" x="981.93" y="-870.75" font-family="Helvetica,Arial,sans-serif" font-size="10.00">N</text>
</g>
<!-- Rel_SO_Contains&#45;&#45;Product -->
<g id="edge67" class="edge">
<title>Rel_SO_Contains--Product</title>
<path fill="none" stroke="black" d="M1081.16,-1170C1052.64,-1146.13 1003.76,-1104.32 964.21,-1065.86 928.18,-1030.83 888.76,-987.12 867.42,-962.96"/>
<text xml:space="preserve" text-anchor="middle" x="960.59" y="-1068.85" font-family="Helvetica,Arial,sans-serif" font-size="10.00">N</text>
</g>
<!-- Rel_Audits&#45;&#45;InventoryAudit -->
<g id="edge69" class="edge">
<title>Rel_Audits--InventoryAudit</title>
<path fill="none" stroke="black" d="M541.77,-965.31C519.07,-957.63 484.42,-945.9 455.17,-936"/>
<text xml:space="preserve" text-anchor="middle" x="497.31" y="-954.49" font-family="Helvetica,Arial,sans-serif" font-size="10.00">N</text>
</g>
<!-- Rel_PerformedBy&#45;&#45;InventoryAudit -->
<g id="edge71" class="edge">
<title>Rel_PerformedBy--InventoryAudit</title>
<path fill="none" stroke="black" d="M496.28,-824.26C476.66,-843.49 441.4,-878.03 419.7,-899.29"/>
<text xml:space="preserve" text-anchor="middle" x="455.16" y="-864.01" font-family="Helvetica,Arial,sans-serif" font-size="10.00">N</text>
</g>
</g>
</svg>